#N canvas 641 81 450 467 12;
#X obj 229 236 dsf~;
#X obj 230 267 *~ 0.1;
#X obj 226 312 dac~;
#X msg 154 159 increment \$1;
#X obj 155 37 hsl 128 15 0 127 0 0 empty empty empty -2 -8 0 10 -262144
-1 -1 7600 1;
#X obj 153 125 *;
#X obj 153 64 + 64;
#X obj 153 92 / 2048;
#X floatatom 300 135 5 0 0 0 - - -;
#X msg 300 158 frequency \$1;
#X connect 0 0 1 0;
#X connect 1 0 2 0;
#X connect 1 0 2 1;
#X connect 3 0 0 0;
#X connect 4 0 6 0;
#X connect 5 0 3 0;
#X connect 6 0 7 0;
#X connect 7 0 5 0;
#X connect 7 0 5 1;
#X connect 8 0 9 0;
#X connect 9 0 0 0;
