#N canvas -168 68 1440 751 12;
#X obj 92 515 dsffm~;
#N canvas 0 22 450 278 (subpatch) 0;
#X array dsffm-left 882 float 0;
#X array dsffm-right 882 float 0;
#X coords 0 1 882 -1 300 170 1;
#X restore 585 531 graph;
#X msg 216 578 bang \; pd dsp 1;
#X obj 155 626 tabwrite~ dsffm-right;
#X obj 71 654 tabwrite~ dsffm-left;
#X obj 93 626 dac~;
#X obj 92 591 *~ 0.5;
#X obj 153 591 *~ 0.5;
#X obj 44 515 / 127;
#X obj 45 375 vsl 15 128 0 127 0 0 empty empty empty 0 -9 0 10 -262144
-1 -1 0 1;
#X text 321 582 Click here to see;
#X text 321 597 snapshot of the generated waveform;
#X text 321 614 left out is real part;
#X text 321 628 right out is imaginary part;
#X obj 91 141 osc~ 5;
#X obj 95 39 hsl 128 15 0 127 0 0 empty empty empty -2 -8 0 10 -262144
-1 -1 0 1;
#X floatatom 92 118 5 0 0 0 - - -;
#X obj 90 266 +~ 50;
#X obj 92 184 *~ 1;
#X obj 162 213 hsl 128 15 0 127 0 0 empty empty empty -2 -8 0 10 -262144
-1 -1 0 1;
#X obj 161 87 hsl 128 15 0 127 0 0 empty empty empty -2 -8 0 10 -262144
-1 -1 0 1;
#X floatatom 158 162 5 0 0 0 - - -;
#X obj 158 109 / 32;
#X obj 158 137 *;
#X floatatom 159 233 5 0 0 0 - - -;
#X text 42 158 PITCH;
#X text 90 16 Control modulation speed;
#X text 160 66 Control modulation depth;
#X text 158 192 Control center frequency in MIDI notes;
#X obj 532 135 osc~ 5;
#X obj 536 41 hsl 128 15 0 127 0 0 empty empty empty -2 -8 0 10 -262144
-1 -1 0 1;
#X floatatom 533 112 5 0 0 0 - - -;
#X obj 533 186 *~ 1;
#X obj 602 89 hsl 128 15 0 127 0 0 empty empty empty -2 -8 0 10 -262144
-1 -1 0 1;
#X floatatom 599 164 5 0 0 0 - - -;
#X text 531 18 Control modulation speed;
#X text 601 68 Control modulation depth;
#X text 483 160 RATIO;
#X text 661 141 Ratio inlet is normalized to 1;
#X text 662 157 0 at input produces a natural;
#X text 661 174 harmonic series.;
#X obj 599 111 / 127;
#X obj 591 373 osc~ 5;
#X obj 595 274 hsl 128 15 0 127 0 0 empty empty empty -2 -8 0 10 -262144
-1 -1 0 1;
#X floatatom 591 347 5 0 0 0 - - -;
#X obj 592 419 *~ 1;
#X obj 661 322 hsl 128 15 0 127 0 0 empty empty empty -2 -8 0 10 -262144
-1 -1 0 1;
#X floatatom 658 397 5 0 0 0 - - -;
#X text 590 251 Control modulation speed;
#X text 660 301 Control modulation depth;
#X obj 658 344 / 127;
#X text 535 394 WEIGHT;
#X floatatom 126 385 5 0 0 0 - - -;
#X obj 129 340 hsl 128 15 0 127 0 0 empty empty empty -2 -8 0 10 -262144
-1 -1 0 1;
#X floatatom 338 400 5 0 0 0 - - -;
#X obj 341 357 hsl 128 15 0 127 0 0 empty empty empty -2 -8 0 10 -262144
-1 -1 0 1;
#X msg 338 425 weight \$1;
#X msg 126 410 partials \$1;
#X obj 126 362 * 1;
#X obj 338 377 / 64;
#X text 720 374 Weight inlet is normalized to;
#X text 719 388 value set by "weight \$1" message.;
#X text 720 405 0 at input produces the;
#X text 720 420 corresponding spectrum;
#X text 161 308 work exactly as in dsf~;
#X text 157 279 "partials \$1" \, "fundamental \$1";
#X text 159 294 and "weight \$1";
#X obj 92 89 *;
#X obj 92 62 / 8;
#X obj 533 63 / 8;
#X obj 533 88 *;
#X obj 592 297 / 8;
#X obj 592 323 *;
#X text 976 60 dsffm~ creates sounds based on discrete summation formula.
By calculating an arbitrary number of overtones in a closed form \,
DSF synthesis can create rich spectra without aliasing and with near-constant
computation complexity. The DSF parameters enable the user to set a
fundamental frequency as well as the number of overtones that are to
be created \, the spacing between the overtones and the rolloff-factor
\, by which the spectrum tails off.;
#X text 977 196 The dsffm~ module provides the user with a DSF synthesis
unit that provides signal-rate control over crucial DSF parameters
to enable FM-like sounds. Pitchcontrol is done via the MIDI-note scale
\, so that modulations have the same audible effect over the whole
frequency spectrum. To produce the note A3 \, send a signal with value
69 to the first inlet. Depending on the ratio setting \, the note might
sound nothing like an A3. This is due to the so-called "missing fundamental"-effect
\, where the human ear interpolates a series of equally spaced overtones
downwards to an expected (but not necessarily provided) base note.
To get a natural-sounding note \, send a signal with value 0 to the
second inlet. This inlet sets the ratio and is normalized to 1 \, that
is \, the spacing between the overtones is set to 1 times the fundamental
frequency (this is a natural overtone series).;
#X text 978 441 The left and right outputs of dsffm~ provide the real
and the imaginary part of the synthesis. They are in quadrature \,
so they can be used to create pleasing stereo sounds or to draw mesmerizing
patterns on a scope~-object (from cyclone-package).;
#X connect 0 0 4 0;
#X connect 0 0 6 0;
#X connect 0 1 3 0;
#X connect 0 1 7 0;
#X connect 2 0 3 0;
#X connect 2 0 4 0;
#X connect 6 0 5 0;
#X connect 7 0 5 1;
#X connect 8 0 6 1;
#X connect 8 0 7 1;
#X connect 9 0 8 0;
#X connect 14 0 18 0;
#X connect 15 0 68 0;
#X connect 16 0 14 0;
#X connect 17 0 0 0;
#X connect 18 0 17 0;
#X connect 19 0 24 0;
#X connect 20 0 22 0;
#X connect 21 0 18 1;
#X connect 22 0 23 0;
#X connect 22 0 23 1;
#X connect 23 0 21 0;
#X connect 24 0 17 1;
#X connect 29 0 32 0;
#X connect 30 0 69 0;
#X connect 31 0 29 0;
#X connect 32 0 0 1;
#X connect 33 0 41 0;
#X connect 34 0 32 1;
#X connect 41 0 34 0;
#X connect 42 0 45 0;
#X connect 43 0 71 0;
#X connect 44 0 42 0;
#X connect 45 0 0 2;
#X connect 46 0 50 0;
#X connect 47 0 45 1;
#X connect 50 0 47 0;
#X connect 52 0 57 0;
#X connect 53 0 58 0;
#X connect 54 0 56 0;
#X connect 55 0 59 0;
#X connect 56 0 0 0;
#X connect 57 0 0 0;
#X connect 58 0 52 0;
#X connect 59 0 54 0;
#X connect 67 0 16 0;
#X connect 68 0 67 0;
#X connect 68 0 67 1;
#X connect 69 0 70 0;
#X connect 69 0 70 1;
#X connect 70 0 31 0;
#X connect 71 0 72 0;
#X connect 71 0 72 1;
#X connect 72 0 44 0;
